<svg width="66" height="53" viewBox="0 0 66 53" fill="none" xmlns="http://www.w3.org/2000/svg">
<path d="M60.0336 0.673584H13.7326C12.5047 0.675361 11.316 1.11891 10.3717 1.92762C9.42747 2.73633 8.787 3.85941 8.56094 5.10288C7.51712 5.30508 6.55686 5.82724 5.80584 6.60102C5.05481 7.37481 4.54801 8.36416 4.35176 9.43962C3.14486 9.67253 2.05481 10.3324 1.26989 11.3053C0.484962 12.2781 0.0544588 13.5029 0.0527344 14.768V47.2935C0.0543011 48.7307 0.609137 50.1086 1.59552 51.1249C2.5819 52.1411 3.91926 52.7128 5.31421 52.7144H51.6152C52.8431 52.7126 54.0318 52.2691 54.9761 51.4604C55.9203 50.6517 56.5608 49.5286 56.7869 48.2851C57.8307 48.0829 58.7909 47.5607 59.542 46.787C60.293 46.0132 60.7998 45.0238 60.996 43.9484C62.2029 43.7155 63.293 43.0556 64.0779 42.0827C64.8628 41.1099 65.2934 39.8851 65.2951 38.62V6.0945C65.2935 4.65728 64.7387 3.27939 63.7523 2.26312C62.7659 1.24685 61.4285 0.675198 60.0336 0.673584ZM2.15733 14.768C2.15827 13.9056 2.49117 13.0789 3.083 12.4691C3.67482 11.8594 4.47724 11.5164 5.31421 11.5154H51.6152C52.4522 11.5164 53.2546 11.8594 53.8464 12.4691C54.4383 13.0789 54.7712 13.9056 54.7721 14.768V15.8522H2.15733V14.768ZM54.7721 47.2935C54.7712 48.1558 54.4383 48.9826 53.8464 49.5923C53.2546 50.2021 52.4522 50.5451 51.6152 50.546H5.31421C4.47724 50.5451 3.67482 50.2021 3.083 49.5923C2.49117 48.9826 2.15827 48.1558 2.15733 47.2935V18.0205H54.7721V47.2935ZM58.9813 42.9567C58.9805 43.6291 58.7778 44.2847 58.401 44.8337C58.0242 45.3826 57.4917 45.798 56.8767 46.0228V14.768C56.8751 13.3308 56.3203 11.9529 55.3339 10.9366C54.3475 9.92032 53.0102 9.34867 51.6152 9.34705H6.5475C6.76572 8.7134 7.16888 8.16484 7.70168 7.77662C8.23448 7.38839 8.87082 7.17953 9.5234 7.17869H55.8244C56.6614 7.17965 57.4638 7.52264 58.0556 8.13241C58.6475 8.74217 58.9804 9.5689 58.9813 10.4312V42.9567ZM63.1905 38.62C63.1897 39.2924 62.9869 39.948 62.6101 40.4969C62.2333 41.0459 61.7009 41.4613 61.0859 41.6861V10.4312C61.0843 8.99402 60.5295 7.61612 59.5431 6.59985C58.5567 5.58358 57.2194 5.01193 55.8244 5.01032H10.7567C10.9749 4.37667 11.3781 3.8281 11.9109 3.43988C12.4437 3.05166 13.08 2.8428 13.7326 2.84195H60.0336C60.8706 2.84292 61.673 3.18591 62.2648 3.79567C62.8566 4.40543 63.1895 5.23217 63.1905 6.0945V38.62Z" fill="url(#paint0_linear)"/>
<path d="M5.31401 14.768C5.89518 14.768 6.36631 14.2826 6.36631 13.6838C6.36631 13.085 5.89518 12.5996 5.31401 12.5996C4.73285 12.5996 4.26172 13.085 4.26172 13.6838C4.26172 14.2826 4.73285 14.768 5.31401 14.768Z" fill="url(#paint1_linear)"/>
<path d="M9.523 14.768C10.1042 14.768 10.5753 14.2826 10.5753 13.6838C10.5753 13.085 10.1042 12.5996 9.523 12.5996C8.94183 12.5996 8.4707 13.085 8.4707 13.6838C8.4707 14.2826 8.94183 14.768 9.523 14.768Z" fill="url(#paint2_linear)"/>
<path d="M13.732 14.768C14.3132 14.768 14.7843 14.2826 14.7843 13.6838C14.7843 13.085 14.3132 12.5996 13.732 12.5996C13.1508 12.5996 12.6797 13.085 12.6797 13.6838C12.6797 14.2826 13.1508 14.768 13.732 14.768Z" fill="url(#paint3_linear)"/>
<path d="M16.8902 40.7885H40.0407C40.3198 40.7885 40.5874 40.6743 40.7848 40.4709C40.9821 40.2676 41.093 39.9919 41.093 39.7043V22.3574C41.093 22.0698 40.9821 21.7941 40.7848 21.5907C40.5874 21.3874 40.3198 21.2732 40.0407 21.2732H16.8902C16.6111 21.2732 16.3434 21.3874 16.1461 21.5907C15.9488 21.7941 15.8379 22.0698 15.8379 22.3574V39.7043C15.8379 39.9919 15.9488 40.2676 16.1461 40.4709C16.3434 40.6743 16.6111 40.7885 16.8902 40.7885ZM17.9425 23.4416H38.9884V38.6201H17.9425V23.4416Z" fill="black"/>
<path fill-rule="evenodd" clip-rule="evenodd" d="M15.8379 24.2732C15.8379 22.6163 17.181 21.2732 18.8379 21.2732H38.093C39.7498 21.2732 41.093 22.6163 41.093 24.2732V37.7885C41.093 39.4454 39.7498 40.7885 38.093 40.7885H18.8379C17.181 40.7885 15.8379 39.4454 15.8379 37.7885V24.2732ZM25.8479 33.0612C26.0113 33.1553 26.1961 33.2028 26.3833 33.1987C26.5705 33.1947 26.7532 33.1392 26.9126 33.0381L32.0426 29.7856C32.1956 29.6885 32.322 29.5527 32.4097 29.3911C32.4973 29.2295 32.5433 29.0474 32.5433 28.8623C32.5433 28.6771 32.4973 28.4951 32.4097 28.3334C32.322 28.1718 32.1956 28.036 32.0426 27.939L26.9126 24.6864C26.7532 24.5852 26.5704 24.5297 26.3832 24.5256C26.196 24.5215 26.0111 24.569 25.8476 24.6631C25.6841 24.7572 25.548 24.8945 25.4532 25.0609C25.3585 25.2273 25.3085 25.4168 25.3086 25.6097V32.1148C25.3086 32.3077 25.3586 32.4971 25.4534 32.6635C25.5482 32.8299 25.6844 32.9671 25.8479 33.0612ZM33.4187 33.5168C33.7445 33.8524 34.1061 34.2834 34.5739 34.2834H35.8315C36.1106 34.2834 36.3783 34.3976 36.5756 34.6009C36.7729 34.8043 36.8838 35.08 36.8838 35.3676C36.8838 35.6551 36.7729 35.9309 36.5756 36.1342C36.3783 36.3375 36.1106 36.4518 35.8315 36.4518H34.5739C34.1061 36.4518 33.7445 36.8827 33.4187 37.2184C33.2214 37.4217 32.9537 37.5359 32.6746 37.5359C32.3955 37.5359 32.1279 37.4217 31.9305 37.2184C31.6047 36.8827 31.2431 36.4518 30.7753 36.4518H21.0994C20.8203 36.4518 20.5526 36.3375 20.3553 36.1342C20.1579 35.9309 20.0471 35.6551 20.0471 35.3676C20.0471 35.08 20.1579 34.8043 20.3553 34.6009C20.5526 34.3976 20.8203 34.2834 21.0994 34.2834H30.7753C31.2431 34.2834 31.6047 33.8524 31.9305 33.5168C32.1279 33.3134 32.3955 33.1992 32.6746 33.1992C32.9537 33.1992 33.2214 33.3134 33.4187 33.5168Z" fill="url(#paint4_linear)"/>
<path d="M16.8902 44.0409H40.0407C40.3198 44.0409 40.5874 43.9267 40.7848 43.7234C40.9821 43.5201 41.093 43.2443 41.093 42.9567C41.093 42.6692 40.9821 42.3934 40.7848 42.1901C40.5874 41.9868 40.3198 41.8726 40.0407 41.8726H16.8902C16.6111 41.8726 16.3434 41.9868 16.1461 42.1901C15.9488 42.3934 15.8379 42.6692 15.8379 42.9567C15.8379 43.2443 15.9488 43.5201 16.1461 43.7234C16.3434 43.9267 16.6111 44.0409 16.8902 44.0409Z" fill="url(#paint5_linear)"/>
<path d="M16.8902 47.2934H31.6223C31.9014 47.2934 32.1691 47.1791 32.3664 46.9758C32.5638 46.7725 32.6746 46.4967 32.6746 46.2092C32.6746 45.9216 32.5638 45.6459 32.3664 45.4425C32.1691 45.2392 31.9014 45.125 31.6223 45.125H16.8902C16.6111 45.125 16.3434 45.2392 16.1461 45.4425C15.9488 45.6459 15.8379 45.9216 15.8379 46.2092C15.8379 46.4967 15.9488 46.7725 16.1461 46.9758C16.3434 47.1791 16.6111 47.2934 16.8902 47.2934Z" fill="url(#paint6_linear)"/>
<path d="M35.8312 45.125H34.7789C34.4998 45.125 34.2321 45.2392 34.0348 45.4425C33.8374 45.6459 33.7266 45.9216 33.7266 46.2092C33.7266 46.4967 33.8374 46.7725 34.0348 46.9758C34.2321 47.1791 34.4998 47.2934 34.7789 47.2934H35.8312C36.1102 47.2934 36.3779 47.1791 36.5752 46.9758C36.7726 46.7725 36.8834 46.4967 36.8834 46.2092C36.8834 45.9216 36.7726 45.6459 36.5752 45.4425C36.3779 45.2392 36.1102 45.125 35.8312 45.125Z" fill="url(#paint7_linear)"/>
<defs>
<linearGradient id="paint0_linear" x1="65.2951" y1="26.694" x2="0.0527344" y2="26.694" gradientUnits="userSpaceOnUse">
<stop stop-color="#4CBA85"/>
<stop offset="1" stop-color="#2569AC"/>
</linearGradient>
<linearGradient id="paint1_linear" x1="6.36631" y1="13.6838" x2="4.26172" y2="13.6838" gradientUnits="userSpaceOnUse">
<stop stop-color="#4CBA85"/>
<stop offset="1" stop-color="#2569AC"/>
</linearGradient>
<linearGradient id="paint2_linear" x1="10.5753" y1="13.6838" x2="8.4707" y2="13.6838" gradientUnits="userSpaceOnUse">
<stop stop-color="#4CBA85"/>
<stop offset="1" stop-color="#2569AC"/>
</linearGradient>
<linearGradient id="paint3_linear" x1="14.7843" y1="13.6838" x2="12.6797" y2="13.6838" gradientUnits="userSpaceOnUse">
<stop stop-color="#4CBA85"/>
<stop offset="1" stop-color="#2569AC"/>
</linearGradient>
<linearGradient id="paint4_linear" x1="41.093" y1="31.0308" x2="15.8379" y2="31.0308" gradientUnits="userSpaceOnUse">
<stop stop-color="#4CBA85"/>
<stop offset="1" stop-color="#2569AC"/>
</linearGradient>
<linearGradient id="paint5_linear" x1="41.093" y1="42.9567" x2="15.8379" y2="42.9567" gradientUnits="userSpaceOnUse">
<stop stop-color="#4CBA85"/>
<stop offset="1" stop-color="#2569AC"/>
</linearGradient>
<linearGradient id="paint6_linear" x1="32.6746" y1="46.2092" x2="15.8379" y2="46.2092" gradientUnits="userSpaceOnUse">
<stop stop-color="#4CBA85"/>
<stop offset="1" stop-color="#2569AC"/>
</linearGradient>
<linearGradient id="paint7_linear" x1="36.8834" y1="46.2092" x2="33.7266" y2="46.2092" gradientUnits="userSpaceOnUse">
<stop stop-color="#4CBA85"/>
<stop offset="1" stop-color="#2569AC"/>
</linearGradient>
</defs>
</svg>
