<svg width="73" height="73" viewBox="0 0 73 73" fill="none" xmlns="http://www.w3.org/2000/svg">
<path d="M52.501 21.144H4.49805C2.01777 21.144 0 23.1618 0 25.6421V57.644C0 60.1243 2.01777 62.1421 4.49805 62.1421H52.5008C54.9811 62.1421 56.999 60.1243 56.999 57.644V25.6421C56.999 23.1618 54.9813 21.144 52.501 21.144ZM54.8604 57.644C54.8604 58.9449 53.8019 60.0034 52.5008 60.0034H4.49805C3.19703 60.0034 2.13867 58.9449 2.13867 57.644V25.6421C2.13867 24.3411 3.19703 23.2827 4.49805 23.2827H52.5008C53.8019 23.2827 54.8604 24.3411 54.8604 25.6421V57.644Z" fill="url(#paint0_linear)"/>
<path d="M14.7842 33.7166H10.2126C8.36248 33.7166 6.85742 35.2217 6.85742 37.0717V39.3575C6.85742 41.2076 8.36248 42.7127 10.2126 42.7127H14.7842C16.6343 42.7127 18.1393 41.2075 18.1393 39.3575V37.0717C18.1393 35.2216 16.6341 33.7166 14.7842 33.7166ZM11.429 40.5741H10.2126C9.54174 40.5741 8.99609 40.0285 8.99609 39.3577V37.0717C8.99609 36.4009 9.54188 35.8552 10.2126 35.8552H11.429V40.5741ZM16.0008 39.3575C16.0008 40.0283 15.455 40.574 14.7843 40.574H13.5679V35.8551H14.7843C15.455 35.8552 16.0008 36.4009 16.0008 37.0717V39.3575Z" fill="url(#paint1_linear)"/>
<path d="M14.7843 46.2883H7.92676C7.3362 46.2883 6.85742 46.767 6.85742 47.3577C6.85742 47.9484 7.3362 48.427 7.92676 48.427H14.7843C15.3749 48.427 15.8537 47.9484 15.8537 47.3577C15.8537 46.767 15.3749 46.2883 14.7843 46.2883Z" fill="url(#paint2_linear)"/>
<path d="M26.214 46.2883H19.3564C18.7659 46.2883 18.2871 46.767 18.2871 47.3577C18.2871 47.9484 18.7659 48.427 19.3564 48.427H26.214C26.8046 48.427 27.2834 47.9484 27.2834 47.3577C27.2834 46.767 26.8046 46.2883 26.214 46.2883Z" fill="url(#paint3_linear)"/>
<path d="M30.7852 52.0027H7.92676C7.3362 52.0027 6.85742 52.4813 6.85742 53.072C6.85742 53.6627 7.3362 54.1414 7.92676 54.1414H30.7853C31.3759 54.1414 31.8546 53.6627 31.8546 53.072C31.8546 52.4813 31.3759 52.0027 30.7852 52.0027Z" fill="url(#paint4_linear)"/>
<path d="M37.6437 46.2883H30.7861C30.1956 46.2883 29.7168 46.767 29.7168 47.3577C29.7168 47.9484 30.1956 48.427 30.7861 48.427H37.6437C38.2343 48.427 38.713 47.9484 38.713 47.3577C38.713 46.767 38.2343 46.2883 37.6437 46.2883Z" fill="url(#paint5_linear)"/>
<path d="M49.0714 46.2883H42.2139C41.6233 46.2883 41.1445 46.767 41.1445 47.3577C41.1445 47.9484 41.6233 48.427 42.2139 48.427H49.0714C49.662 48.427 50.1408 47.9484 50.1408 47.3577C50.1408 46.767 49.662 46.2883 49.0714 46.2883Z" fill="url(#paint6_linear)"/>
<path d="M44.501 28.0015C42.6216 28.0015 40.955 28.9262 39.9294 30.3436C38.9037 28.9261 37.2371 28.0015 35.3578 28.0015C32.2473 28.0015 29.7168 30.5319 29.7168 33.6424C29.7168 36.7529 32.2474 39.2834 35.3578 39.2834C37.2372 39.2834 38.9038 38.3586 39.9294 36.9413C40.9551 38.3588 42.6217 39.2834 44.501 39.2834C47.6115 39.2834 50.142 36.7529 50.142 33.6424C50.142 30.5319 47.6115 28.0015 44.501 28.0015ZM35.3576 37.1447C33.4264 37.1447 31.8553 35.5735 31.8553 33.6424C31.8553 31.7113 33.4265 30.1401 35.3576 30.1401C37.2887 30.1401 38.8599 31.7113 38.8599 33.6424C38.8599 35.5735 37.2888 37.1447 35.3576 37.1447ZM44.501 37.1447C42.5698 37.1447 40.9987 35.5735 40.9987 33.6424C40.9987 31.7113 42.5699 30.1401 44.501 30.1401C46.4321 30.1401 48.0033 31.7113 48.0033 33.6424C48.0033 35.5735 46.4322 37.1447 44.501 37.1447Z" fill="url(#paint7_linear)"/>
<circle cx="44.4844" cy="33.6479" r="5.70312" fill="url(#paint8_linear)"/>
<path d="M68.5011 10.8577H20.4982C18.0179 10.8577 16 12.8754 16 15.3557V17.6415C16 18.2322 16.4788 18.7109 17.0693 18.7109H70.8605V23.4299H60.5006C59.9101 23.4299 59.4313 23.9086 59.4313 24.4993C59.4313 25.09 59.9101 25.5686 60.5006 25.5686H70.8605V47.3577C70.8605 48.6587 69.8021 49.717 68.5011 49.717H60.5003C59.9098 49.717 59.431 50.1957 59.431 50.7864C59.431 51.3771 59.9098 51.8557 60.5003 51.8557H68.5011C70.9814 51.8557 72.9991 49.838 72.9991 47.3577V15.3557C72.9991 12.8756 70.9814 10.8577 68.5011 10.8577ZM70.8605 16.5722H18.1388V15.3557C18.1388 14.0548 19.1973 12.9963 20.4983 12.9963H68.5011C69.8021 12.9963 70.8605 14.0548 70.8605 15.3557V16.5722Z" fill="url(#paint9_linear)"/>
<rect x="6.84375" y="33.6484" width="11.2637" height="9.125" rx="1" fill="url(#paint10_linear)"/>
<defs>
<linearGradient id="paint0_linear" x1="56.999" y1="41.6431" x2="3.91572e-08" y2="41.6431" gradientUnits="userSpaceOnUse">
<stop stop-color="#4CBA85"/>
<stop offset="1" stop-color="#2569AC"/>
</linearGradient>
<linearGradient id="paint1_linear" x1="18.1393" y1="38.2146" x2="6.85742" y2="38.2146" gradientUnits="userSpaceOnUse">
<stop stop-color="#4CBA85"/>
<stop offset="1" stop-color="#2569AC"/>
</linearGradient>
<linearGradient id="paint2_linear" x1="15.8537" y1="47.3577" x2="6.85742" y2="47.3577" gradientUnits="userSpaceOnUse">
<stop stop-color="#4CBA85"/>
<stop offset="1" stop-color="#2569AC"/>
</linearGradient>
<linearGradient id="paint3_linear" x1="27.2834" y1="47.3577" x2="18.2871" y2="47.3577" gradientUnits="userSpaceOnUse">
<stop stop-color="#4CBA85"/>
<stop offset="1" stop-color="#2569AC"/>
</linearGradient>
<linearGradient id="paint4_linear" x1="31.8546" y1="53.072" x2="6.85742" y2="53.072" gradientUnits="userSpaceOnUse">
<stop stop-color="#4CBA85"/>
<stop offset="1" stop-color="#2569AC"/>
</linearGradient>
<linearGradient id="paint5_linear" x1="38.713" y1="47.3577" x2="29.7168" y2="47.3577" gradientUnits="userSpaceOnUse">
<stop stop-color="#4CBA85"/>
<stop offset="1" stop-color="#2569AC"/>
</linearGradient>
<linearGradient id="paint6_linear" x1="50.1408" y1="47.3577" x2="41.1445" y2="47.3577" gradientUnits="userSpaceOnUse">
<stop stop-color="#4CBA85"/>
<stop offset="1" stop-color="#2569AC"/>
</linearGradient>
<linearGradient id="paint7_linear" x1="50.142" y1="33.6424" x2="29.7168" y2="33.6424" gradientUnits="userSpaceOnUse">
<stop stop-color="#4CBA85"/>
<stop offset="1" stop-color="#2569AC"/>
</linearGradient>
<linearGradient id="paint8_linear" x1="50.1875" y1="33.6479" x2="38.7813" y2="33.6479" gradientUnits="userSpaceOnUse">
<stop stop-color="#4CBA85"/>
<stop offset="1" stop-color="#2569AC"/>
</linearGradient>
<linearGradient id="paint9_linear" x1="72.9992" y1="31.3567" x2="16" y2="31.3567" gradientUnits="userSpaceOnUse">
<stop stop-color="#4CBA85"/>
<stop offset="1" stop-color="#2569AC"/>
</linearGradient>
<linearGradient id="paint10_linear" x1="18.1074" y1="38.2109" x2="6.84375" y2="38.2109" gradientUnits="userSpaceOnUse">
<stop stop-color="#4CBA85"/>
<stop offset="1" stop-color="#2569AC"/>
</linearGradient>
</defs>
</svg>
