<svg width="196" height="120" viewBox="0 0 196 120" fill="none" xmlns="http://www.w3.org/2000/svg">
<path d="M26.7721 0.56838H169.263C176.351 0.576613 183.147 3.08702 188.159 7.54906C193.171 12.0111 195.991 18.0605 196 24.3708V57.2898C195.994 60.5395 195.24 63.7537 193.786 66.7343C192.331 69.7149 190.206 72.3986 187.542 74.6204C184.623 77.0026 181.168 78.8056 177.407 79.9098C174.775 80.662 172.027 81.0401 169.263 81.03H120.543C108.388 81.0166 96.5388 84.4207 86.6854 90.7566C76.832 97.0926 69.4776 106.037 65.6714 116.314C65.3827 117.155 64.838 117.908 64.0977 118.49C63.3574 119.072 62.4505 119.46 61.4774 119.612H60.5687C59.7657 119.611 58.9728 119.452 58.2475 119.145C57.5221 118.838 56.8825 118.392 56.3748 117.838L5.87193 61.6146C2.06395 57.3876 -0.00762939 52.1294 0.000366211 46.7109V24.4953C-0.0180817 21.3564 0.661041 18.2453 1.99861 15.341C3.3362 12.4368 5.30576 9.79677 7.79404 7.57289C10.2823 5.34902 13.2402 3.58525 16.4972 2.38313C19.7542 1.181 23.2462 0.564234 26.7721 0.56838ZM10.8349 24.3708V46.742C10.838 49.9839 12.0694 53.1301 14.3299 55.6718L59.1707 105.455C64.0475 96.6274 71.2402 88.9754 80.1407 83.1457C91.8768 75.4328 106.095 71.2971 120.683 71.3534H169.263C170.923 71.3439 172.573 71.1131 174.156 70.6689C177.369 69.7456 180.173 67.9434 182.169 65.5188C184.164 63.0942 185.25 60.171 185.27 57.1653V24.4953C185.261 20.7212 183.571 17.1046 180.57 14.4389C177.569 11.7731 173.503 10.276 169.263 10.276H26.6672C22.4554 10.3088 18.4286 11.8215 15.4635 14.4845C12.4983 17.1476 10.8347 20.7456 10.8349 24.4953V24.3708Z" fill="white" fill-opacity="0.3"/>
</svg>
