<svg width="70" height="51" viewBox="0 0 70 51" fill="none" xmlns="http://www.w3.org/2000/svg">
<path d="M51.0212 11.3898C51.7703 11.3898 52.3776 10.8463 52.3776 10.1758C52.3776 9.50521 51.7703 8.96167 51.0212 8.96167H51.0198C50.2706 8.96167 49.6641 9.50521 49.6641 10.1758C49.6641 10.8463 50.2721 11.3898 51.0212 11.3898Z" fill="url(#paint0_linear)"/>
<rect x="1.89844" y="38.5642" width="8.00278" height="12.3433" fill="url(#paint1_linear)"/>
<path d="M68.7982 17.9208L57.4078 11.6964C56.7685 11.3471 55.9337 11.5277 55.5433 12.1C55.1529 12.6723 55.3547 13.4194 55.9941 13.7688L65.4883 18.9569L36.8206 34.6227L8.15306 18.957L36.8206 3.29146L46.7161 8.6989C47.3554 9.04831 48.1902 8.86766 48.5806 8.29535C48.971 7.72304 48.7691 6.9759 48.1297 6.6265L37.5274 0.832859C37.0935 0.595753 36.5477 0.595753 36.1138 0.832859L4.84317 17.9208C4.44072 18.1408 4.19494 18.532 4.19386 18.954C4.1925 18.9551 4.19114 18.9559 4.18979 18.957V30.9113C1.77784 31.5044 0 33.4833 0 35.8279V48.697C0 49.3675 0.607261 49.911 1.3564 49.911H10.0374C10.7865 49.911 11.3938 49.3675 11.3938 48.697V35.8279C11.3938 33.3865 9.4666 31.3415 6.90259 30.8448V21.1185L16.4137 26.316V39.7493C16.4137 40.1724 16.6597 40.5651 17.0633 40.7855L33.7389 49.8981C34.8131 50.4851 36.0175 50.7785 37.222 50.7785C38.4264 50.7785 39.6308 50.4851 40.7051 49.8981L57.3808 40.7855C57.7843 40.5651 58.0304 40.1724 58.0304 39.7493V25.8774L68.7982 19.9933C69.2017 19.7729 69.4478 19.3802 69.4478 18.9571C69.4478 18.534 69.2017 18.1413 68.7982 17.9208ZM2.7128 47.4829V39.3844H8.68097V47.4829H2.7128ZM8.68097 35.8279V36.9563H2.7128V35.8279C2.7128 34.3551 4.05144 33.157 5.69689 33.157C7.34234 33.157 8.68097 34.3551 8.68097 35.8279ZM55.3176 39.0682L51.4979 41.1555V39.4702C51.4979 38.7997 50.8907 38.2562 50.1415 38.2562C49.3924 38.2562 48.7851 38.7997 48.7851 39.4702V42.6378L39.2914 47.8258C38.0149 48.5234 36.4289 48.5234 35.1524 47.8258L19.1263 39.0682V27.7984L36.1138 37.0813C36.3308 37.1999 36.5756 37.2592 36.8206 37.2592C37.0656 37.2592 37.3104 37.1999 37.5274 37.0813L55.3176 27.3598V39.0682Z" fill="url(#paint2_linear)"/>
<path d="M49.1415 35.8293C49.4983 35.8293 49.8482 35.6994 50.1005 35.4736C50.3528 35.2477 50.4979 34.9345 50.4979 34.6152C50.4979 34.2959 50.3528 33.9827 50.1005 33.7569C49.8482 33.531 49.4983 33.4011 49.1415 33.4011C48.7835 33.4011 48.4349 33.531 48.1826 33.7569C47.9289 33.9827 47.7852 34.2959 47.7852 34.6152C47.7852 34.9345 47.9289 35.2477 48.1826 35.4736C48.4349 35.6994 48.7835 35.8293 49.1415 35.8293Z" fill="url(#paint3_linear)"/>
<path d="M35.8213 20.1711C35.4645 20.1711 35.1146 20.0412 34.8623 19.8154C34.61 19.5896 34.4648 19.2763 34.4648 18.957C34.4648 18.6377 34.61 18.3245 34.8623 18.0987C35.1146 17.8728 35.4645 17.7429 35.8213 17.7429C36.178 17.7429 36.528 17.8728 36.7803 18.0987C37.0326 18.3245 37.1777 18.6377 37.1777 18.957C37.1777 19.2763 37.0326 19.5896 36.7803 19.8154C36.528 20.0412 36.178 20.1711 35.8213 20.1711Z" fill="url(#paint4_linear)"/>
<defs>
<linearGradient id="paint0_linear" x1="52.3776" y1="10.1758" x2="49.6641" y2="10.1758" gradientUnits="userSpaceOnUse">
<stop stop-color="#4CBA85"/>
<stop offset="1" stop-color="#2569AC"/>
</linearGradient>
<linearGradient id="paint1_linear" x1="9.90121" y1="44.7358" x2="1.89844" y2="44.7358" gradientUnits="userSpaceOnUse">
<stop stop-color="#4CBA85"/>
<stop offset="1" stop-color="#2569AC"/>
</linearGradient>
<linearGradient id="paint2_linear" x1="69.4478" y1="25.7168" x2="4.77092e-08" y2="25.7168" gradientUnits="userSpaceOnUse">
<stop stop-color="#4CBA85"/>
<stop offset="1" stop-color="#2569AC"/>
</linearGradient>
<linearGradient id="paint3_linear" x1="50.4979" y1="34.6152" x2="47.7852" y2="34.6152" gradientUnits="userSpaceOnUse">
<stop stop-color="#4CBA85"/>
<stop offset="1" stop-color="#2569AC"/>
</linearGradient>
<linearGradient id="paint4_linear" x1="37.1777" y1="18.957" x2="34.4648" y2="18.957" gradientUnits="userSpaceOnUse">
<stop stop-color="#4CBA85"/>
<stop offset="1" stop-color="#2569AC"/>
</linearGradient>
</defs>
</svg>
